<?xml version="1.0" standalone="no"?><!DOCTYPE svg PUBLIC "-//W3C//DTD SVG 1.1//EN" "http://www.w3.org/Graphics/SVG/1.1/DTD/svg11.dtd"><svg t="1741196001974" class="icon" viewBox="0 0 1024 1024" version="1.1" xmlns="http://www.w3.org/2000/svg" p-id="6025" xmlns:xlink="http://www.w3.org/1999/xlink" width="200" height="200"><path d="M192 659.2h147.2s-19.2 64-32 179.2c-6.4 57.6 38.4 115.2 102.4 121.6h12.8c51.2 0 83.2-32 102.4-76.8l38.4-96c32-64 57.6-102.4 76.8-115.2 25.6-12.8 121.6-12.8 128-12.8h128c38.4 0 64-25.6 64-57.6V121.6c0-32-25.6-57.6-64-57.6H249.6C153.6 64 128 128 115.2 217.6L64 524.8c-6.4 70.4 6.4 134.4 128 134.4z m576-537.6h128v480h-128V121.6zM128 531.2l51.2-307.2C192 166.4 192 121.6 256 121.6h448v480c-44.8 0-70.4 6.4-89.6 19.2-32 12.8-64 64-108.8 147.2-25.6 64-38.4 96-44.8 102.4-6.4 19.2-19.2 32-44.8 32h-6.4c-32 0-44.8-32-44.8-51.2 12.8-102.4 32-166.4 32-166.4l25.6-83.2H179.2c-19.2 0-32 0-44.8-12.8-12.8-12.8-6.4-38.4-6.4-57.6z" p-id="6026" fill="#bfbfbf"></path></svg>