<?xml version="1.0" standalone="no"?><!DOCTYPE svg PUBLIC "-//W3C//DTD SVG 1.1//EN" "http://www.w3.org/Graphics/SVG/1.1/DTD/svg11.dtd"><svg t="1739864595052" class="icon" viewBox="0 0 1024 1024" version="1.1" xmlns="http://www.w3.org/2000/svg" p-id="3594" xmlns:xlink="http://www.w3.org/1999/xlink" width="200" height="200"><path d="M872.1 262.9h-250c-25.3 0-49.4-10.9-66.1-30l-88.1-100.5c-16.7-19-40.8-30-66.1-30H152.4c-48.6 0-87.9 39.4-87.9 87.9v646.5c0 48.6 39.4 87.9 87.9 87.9h719.7c48.6 0 87.9-39.4 87.9-87.9v-486c0-48.6-39.3-87.9-87.9-87.9zM709 602.5c-5.9 5.9-13.5 8.8-21.2 8.8s-15.4-2.9-21.2-8.8L543 478.9v299.9c0 16.6-13.4 30-30 30s-30-13.4-30-30V478.9L359.4 602.5c-5.9 5.9-13.5 8.8-21.2 8.8-7.7 0-15.4-2.9-21.2-8.8-11.7-11.7-11.7-30.7 0-42.4l174.8-174.8c5.4-5.4 12.9-8.8 21.2-8.8 8.3 0 15.8 3.4 21.2 8.8L709 560.1c11.7 11.7 11.7 30.7 0 42.4z" p-id="3595" fill="#bfbfbf"></path></svg>