<?xml version="1.0" standalone="no"?><!DOCTYPE svg PUBLIC "-//W3C//DTD SVG 1.1//EN" "http://www.w3.org/Graphics/SVG/1.1/DTD/svg11.dtd"><svg t="1737304864272" class="icon" viewBox="0 0 1024 1024" version="1.1" xmlns="http://www.w3.org/2000/svg" p-id="7939" xmlns:xlink="http://www.w3.org/1999/xlink" width="200" height="200"><path d="M832 640V362.666667a192 192 0 1 0-384 0v298.666666a106.666667 106.666667 0 0 1-213.333333 0V376.746667a128.042667 128.042667 0 1 0-85.333334 0v284.586666a192 192 0 1 0 384 0v-298.666666a106.666667 106.666667 0 0 1 213.333334 0V640h-128l170.666666 213.333333 170.666667-213.333333h-128z m-640-341.333333a42.666667 42.666667 0 1 1 0-85.333334 42.666667 42.666667 0 0 1 0 85.333334z" p-id="7940" fill="#8a8a8a"></path></svg>