<?xml version="1.0" standalone="no"?><!DOCTYPE svg PUBLIC "-//W3C//DTD SVG 1.1//EN" "http://www.w3.org/Graphics/SVG/1.1/DTD/svg11.dtd"><svg t="1739864645695" class="icon" viewBox="0 0 1024 1024" version="1.1" xmlns="http://www.w3.org/2000/svg" p-id="6103" xmlns:xlink="http://www.w3.org/1999/xlink" width="200" height="200"><path d="M544 764.8V832h96c19.2 0 32 12.8 32 32s-12.8 32-32 32h-256c-19.2 0-32-12.8-32-32s12.8-32 32-32h96v-67.2c-124.8-16-224-124.8-224-252.8v-64h64v64c0 105.6 86.4 192 192 192s192-86.4 192-192v-64h64v64c0 131.2-99.2 236.8-224 252.8zM512 640c-70.4 0-128-57.6-128-128V256c0-70.4 57.6-128 128-128s128 57.6 128 128v256c0 70.4-57.6 128-128 128z" fill="#bfbfbf" p-id="6104"></path></svg>